<svg width="179" height="179" viewBox="0 0 179 179" fill="none" xmlns="http://www.w3.org/2000/svg">
<path d="M179 0H0V179H179V0Z" fill="black"/>
<path d="M89.5052 169.258C133.561 169.258 169.275 133.549 169.275 89.5C169.275 45.4508 133.561 9.74182 89.5052 9.74182C45.4497 9.74182 9.7356 45.4508 9.7356 89.5C9.7356 133.549 45.4497 169.258 89.5052 169.258Z" fill="#FF491F"/>
<g transform="translate(28, 51)">
<path d="M23.9643 0.899723C23.8443 6.50247 20.5566 12.7171 9.82944 18.3198C22.4404 13.7489 33.1556 11.8653 39.3711 10.7615L28.7759 24.4025L28.536 24.2825C29.3879 23.1308 32.7356 15.3925 28.536 15.3925C20.8566 15.3925 9.34948 26.0461 9.34948 42.6744C9.34948 44.378 9.22949 52.1163 13.4892 52.1163C18.1208 52.1163 29.3279 42.8544 32.4356 33.8444L32.6756 33.9643L27.924 50.6526C25.7282 52.6082 21.6485 53.6999 17.6888 53.6999C8.67754 53.6999 1.49011 47.9172 1.49011 40.3589C1.49011 29.0934 17.6288 19.4716 22.4404 16.4243C14.1611 20.6233 10.0694 24.0426 3.92591 25.2543C0.45819 25.9261 -0.765714 21.7871 0.878155 18.3678L3.92591 12.1532L4.1059 12.2132C1.5501 16.7242 7.09366 16.4722 9.0975 16.4722C11.1013 16.4722 13.1172 15.7404 13.9091 14.7686C15.553 12.5731 15.253 9.16588 14.7011 6.23853L23.9643 0.875732V0.899723Z" fill="black"/>
</g>
<path d="M86.9494 71.2761L80.6139 106.296H66.0591V63.6578H73.2465L73.7385 103.729L80.9859 63.5978H93.1649L100.472 103.609V63.6458H107.66L108.152 106.284H93.3449L86.9494 71.2641V71.2761Z" fill="black"/>
<path d="M131.274 63.6698C143.645 63.6698 151.864 72.3199 151.864 85.229C151.864 98.1381 143.645 106.788 131.274 106.788C118.903 106.788 110.563 98.1381 110.563 85.229C110.563 72.3199 118.783 63.6698 131.274 63.6698ZM131.274 100.334C139.925 100.334 145.649 94.239 145.649 85.229C145.649 76.219 139.925 70.1244 131.274 70.1244C122.623 70.1244 116.779 76.219 116.779 85.229C116.779 94.239 122.503 100.334 131.274 100.334Z" fill="black"/>
<path d="M51.8043 115.642C51.8043 111.995 54.6601 110.039 58.3918 110.039C62.7594 110.039 65.0393 112.691 65.0393 116.566H61.4516C61.4516 114.874 60.9236 113.447 58.3558 113.423C56.8679 113.387 55.38 113.855 55.38 115.486C55.38 119.685 65.0273 119.157 65.0273 125.66C65.0273 128.923 62.6035 130.903 58.2358 130.903C52.9322 130.903 50.6284 127.807 50.6284 124.34H54.2161C54.2401 126.176 56.028 127.747 58.3318 127.747C60.1077 127.747 61.5356 127.364 61.5356 125.648C61.5356 121.161 51.7923 121.833 51.7923 115.642H51.8043Z" fill="black"/>
<path d="M70.103 130.687H66.5513V110.279H72.4428C76.0545 110.279 79.3783 111.383 79.3783 115.498C79.3783 119.265 76.6065 121.101 72.4428 121.101H70.139L70.115 130.699L70.103 130.687ZM72.4428 118.33C74.3986 118.33 75.7905 117.898 75.7905 115.678C75.7905 113.459 74.3866 113.027 72.4428 113.051H70.139V118.33H72.4428Z" fill="black"/>
<path d="M87.1295 126.464H82.3779L81.7059 130.687H78.1782L81.358 110.279H88.2694L91.4492 130.687H87.8015L87.1295 126.464ZM86.7215 123.692L84.7657 111.131L82.7859 123.692H86.7215Z" fill="black"/>
<path d="M101.816 127.831C104.912 127.831 107.444 126.344 108.176 123.608H111.583C110.504 128.095 106.712 130.927 101.816 130.927C95.8407 130.927 91.905 126.788 91.905 120.609C91.905 114.43 95.8407 110.291 101.816 110.291C107.384 110.291 110.792 114.059 110.792 119.505H107.792C107.588 115.39 105.572 113.387 101.816 113.387C97.6166 113.387 94.8808 116.302 94.8808 120.621C94.8808 124.94 97.6166 127.855 101.816 127.855V127.831Z" fill="black"/>
<path d="M116.071 128.071H128.37V130.699H112.508V110.291H128.286V112.919H116.095V119.181H128.286V121.809H116.095L116.071 128.071Z" fill="black"/>
</svg>
