<svg width="359" height="179" viewBox="0 0 359 179" fill="none" xmlns="http://www.w3.org/2000/svg">
<path d="M179.018 0H-0.00756836V179H179.018V0Z" fill="black"/>
<path d="M358.044 0H179.018V179H358.044V0Z" fill="#FF491F"/>
<path d="M268.531 169.258C312.587 169.258 348.301 133.549 348.301 89.5C348.301 45.4508 312.587 9.74182 268.531 9.74182C224.476 9.74182 188.761 45.4508 188.761 89.5C188.761 133.549 224.476 169.258 268.531 169.258Z" fill="black"/>
<path d="M89.5052 169.258C133.561 169.258 169.275 133.549 169.275 89.5C169.275 45.4508 133.561 9.74182 89.5052 9.74182C45.4497 9.74182 9.7356 45.4508 9.7356 89.5C9.7356 133.549 45.4497 169.258 89.5052 169.258Z" fill="#FF491F"/>
<path d="M223.763 53.592H237.178V56.2195H232.282L232.318 73.9755H228.706V56.2195H223.775V53.592H223.763Z" fill="#C9C9C9"/>
<path d="M242.037 62.4581H247.809V53.5681H251.396L251.42 73.9756H247.809V65.0855H242.061V73.9756H238.449V53.5681H242.037V62.4581Z" fill="#C9C9C9"/>
<path d="M257.336 73.9756H253.724V53.5681H257.312L257.336 73.9756Z" fill="#C9C9C9"/>
<path d="M273.895 73.0998V53.5681H277.65L277.422 73.9756H270.715L262.988 54.9118L262.784 73.9756H259.256V53.5681H265.987L273.895 73.0998Z" fill="#C9C9C9"/>
<path d="M289.289 71.1202C291.245 71.1202 294.017 70.6283 294.329 65.4334V65.0855H284.706V62.4581H297.449V73.9755H294.329V69.7525C293.657 72.9557 291.329 74.2155 288.293 74.2155C282.75 74.2155 278.814 70.0764 278.814 63.8978C278.814 57.7192 282.75 53.5801 288.725 53.5801H297.353L297.329 56.7354L288.725 56.6754C284.526 56.6754 281.79 59.5907 281.79 63.9098C281.79 68.2288 284.526 71.1442 289.277 71.1442L289.289 71.1202Z" fill="#C9C9C9"/>
<path d="M300.065 58.9309C300.065 55.2837 302.92 53.3281 306.652 53.3281C311.032 53.3281 313.3 55.9795 313.3 59.8547H309.712C309.712 58.163 309.184 56.7354 306.616 56.7114C305.128 56.6754 303.64 57.1433 303.64 58.7749C303.64 62.974 313.288 62.4461 313.288 68.9486C313.288 72.2119 310.864 74.1915 306.496 74.1915C301.192 74.1915 298.889 71.0962 298.889 67.6289H302.476C302.512 69.4645 304.288 71.0362 306.592 71.0362C308.368 71.0362 309.796 70.6523 309.796 68.9366C309.796 64.4496 300.065 65.1014 300.065 58.9309Z" fill="#C9C9C9"/>
<path d="M234.022 86.3567L230.986 103.117H224.015V82.7095H227.458L227.686 101.893L231.154 82.6855H236.986L240.489 101.845V82.7215H243.933L244.173 103.129H237.082L234.022 86.3687V86.3567Z" fill="#C9C9C9"/>
<path d="M255.248 82.7096C261.164 82.7096 265.099 86.8487 265.099 93.0273C265.099 99.2059 261.164 103.345 255.248 103.345C249.333 103.345 245.337 99.2059 245.337 93.0273C245.337 86.8487 249.273 82.7096 255.248 82.7096ZM255.248 100.262C259.388 100.262 262.124 97.3463 262.124 93.0273C262.124 88.7083 259.388 85.7929 255.248 85.7929C251.108 85.7929 248.313 88.7083 248.313 93.0273C248.313 97.3463 251.048 100.262 255.248 100.262Z" fill="#C9C9C9"/>
<path d="M270.139 103.117H266.575V82.7096H272.467C276.078 82.7096 279.402 83.8133 279.402 87.9284C279.402 90.9877 277.53 92.7993 274.591 93.3512L279.378 103.117H275.73L271.039 93.5192H270.163L270.127 103.117H270.139ZM272.467 90.7478C274.423 90.7478 275.814 90.3159 275.814 88.0964C275.814 85.8769 274.411 85.445 272.467 85.469H270.163V90.7478H272.467Z" fill="#C9C9C9"/>
<path d="M284.742 92.8233L290.369 82.7096H293.957L288.473 92.5594H294.245L289.229 103.117H285.642L289.817 94.8389H284.778V103.117H281.166V82.7096H284.754V92.8233H284.742Z" fill="#C9C9C9"/>
<path d="M233.674 111.851C239.589 111.851 243.525 115.99 243.525 122.169C243.525 128.347 239.589 132.486 233.674 132.486C227.758 132.486 223.763 128.347 223.763 122.169C223.763 115.99 227.698 111.851 233.674 111.851ZM233.674 129.403C237.814 129.403 240.549 126.488 240.549 122.169C240.549 117.85 237.814 114.934 233.674 114.934C229.534 114.934 226.738 117.85 226.738 122.169C226.738 126.488 229.474 129.403 233.674 129.403Z" fill="#C9C9C9"/>
<path d="M248.829 124.244C248.829 130.831 257.516 131.035 257.516 124.244V111.911H261.08V124.592C261.08 134.802 245.277 134.946 245.277 124.592V111.911H248.841V124.244H248.829Z" fill="#C9C9C9"/>
<path d="M262.724 111.875H276.139V114.502H271.243L271.279 132.258H267.667V114.502H262.736V111.875H262.724Z" fill="#C9C9C9"/>
<path d="M277.363 128.695H280.95V132.259H277.363V128.695Z" fill="#C9C9C9"/>
<g transform="translate(28, 51)">
<path d="M23.9643 0.899723C23.8443 6.50247 20.5566 12.7171 9.82944 18.3198C22.4404 13.7489 33.1556 11.8653 39.3711 10.7615L28.7759 24.4025L28.536 24.2825C29.3879 23.1308 32.7356 15.3925 28.536 15.3925C20.8566 15.3925 9.34948 26.0461 9.34948 42.6744C9.34948 44.378 9.22949 52.1163 13.4892 52.1163C18.1208 52.1163 29.3279 42.8544 32.4356 33.8444L32.6756 33.9643L27.924 50.6526C25.7282 52.6082 21.6485 53.6999 17.6888 53.6999C8.67754 53.6999 1.49011 47.9172 1.49011 40.3589C1.49011 29.0934 17.6288 19.4716 22.4404 16.4243C14.1611 20.6233 10.0694 24.0426 3.92591 25.2543C0.45819 25.9261 -0.765714 21.7871 0.878155 18.3678L3.92591 12.1532L4.1059 12.2132C1.5501 16.7242 7.09366 16.4722 9.0975 16.4722C11.1013 16.4722 13.1172 15.7404 13.9091 14.7686C15.553 12.5731 15.253 9.16588 14.7011 6.23853L23.9643 0.875732V0.899723Z" fill="black"/>
</g>
<path d="M86.9494 71.2761L80.6139 106.296H66.0591V63.6578H73.2465L73.7385 103.729L80.9859 63.5978H93.1649L100.472 103.609V63.6458H107.66L108.152 106.284H93.3449L86.9494 71.2641V71.2761Z" fill="black"/>
<path d="M131.274 63.6698C143.645 63.6698 151.864 72.3199 151.864 85.229C151.864 98.1381 143.645 106.788 131.274 106.788C118.903 106.788 110.563 98.1381 110.563 85.229C110.563 72.3199 118.783 63.6698 131.274 63.6698ZM131.274 100.334C139.925 100.334 145.649 94.239 145.649 85.229C145.649 76.219 139.925 70.1244 131.274 70.1244C122.623 70.1244 116.779 76.219 116.779 85.229C116.779 94.239 122.503 100.334 131.274 100.334Z" fill="black"/>
<path d="M51.8043 115.642C51.8043 111.995 54.6601 110.039 58.3918 110.039C62.7594 110.039 65.0393 112.691 65.0393 116.566H61.4516C61.4516 114.874 60.9236 113.447 58.3558 113.423C56.8679 113.387 55.38 113.855 55.38 115.486C55.38 119.685 65.0273 119.157 65.0273 125.66C65.0273 128.923 62.6035 130.903 58.2358 130.903C52.9322 130.903 50.6284 127.807 50.6284 124.34H54.2161C54.2401 126.176 56.028 127.747 58.3318 127.747C60.1077 127.747 61.5356 127.364 61.5356 125.648C61.5356 121.161 51.7923 121.833 51.7923 115.642H51.8043Z" fill="black"/>
<path d="M70.103 130.687H66.5513V110.279H72.4428C76.0545 110.279 79.3783 111.383 79.3783 115.498C79.3783 119.265 76.6065 121.101 72.4428 121.101H70.139L70.115 130.699L70.103 130.687ZM72.4428 118.33C74.3986 118.33 75.7905 117.898 75.7905 115.678C75.7905 113.459 74.3866 113.027 72.4428 113.051H70.139V118.33H72.4428Z" fill="black"/>
<path d="M87.1295 126.464H82.3779L81.7059 130.687H78.1782L81.358 110.279H88.2694L91.4492 130.687H87.8015L87.1295 126.464ZM86.7215 123.692L84.7657 111.131L82.7859 123.692H86.7215Z" fill="black"/>
<path d="M101.816 127.831C104.912 127.831 107.444 126.344 108.176 123.608H111.583C110.504 128.095 106.712 130.927 101.816 130.927C95.8407 130.927 91.905 126.788 91.905 120.609C91.905 114.43 95.8407 110.291 101.816 110.291C107.384 110.291 110.792 114.059 110.792 119.505H107.792C107.588 115.39 105.572 113.387 101.816 113.387C97.6166 113.387 94.8808 116.302 94.8808 120.621C94.8808 124.94 97.6166 127.855 101.816 127.855V127.831Z" fill="black"/>
<path d="M116.071 128.071H128.37V130.699H112.508V110.291H128.286V112.919H116.095V119.181H128.286V121.809H116.095L116.071 128.071Z" fill="black"/>
</svg>
